<svg width="491" height="485" viewBox="0 0 491 485" fill="none" xmlns="http://www.w3.org/2000/svg">
<path d="M336.202 231.839L355.499 248.665C407.532 294.036 402.019 360.097 343.187 396.217L247.872 454.734L40.1479 273.606L135.462 215.088C194.295 178.969 284.169 186.468 336.202 231.839Z" fill="white" stroke="#FF7000" stroke-width="50"/>
<path d="M336.202 196.131L355.499 212.957C407.532 258.328 402.019 324.389 343.187 360.509L247.872 419.026L40.1479 237.898L135.462 179.381C194.295 143.261 284.169 150.76 336.202 196.131Z" fill="white" stroke="url(#paint0_linear_4_2)" stroke-width="50"/>
<path d="M337.342 153.668L356.638 170.494C408.671 215.865 403.159 281.926 344.326 318.046L249.012 376.563L41.2876 195.435L136.602 136.918C195.435 100.798 285.309 108.297 337.342 153.668Z" fill="white" stroke="#FF7000" stroke-width="50"/>
<path d="M334.162 111.661L353.459 128.488C405.492 173.858 399.979 239.919 341.147 276.039L251.291 331.205L43.5669 150.077L133.422 94.9109C192.255 58.7912 282.129 66.2906 334.162 111.661Z" fill="white" stroke="url(#paint1_linear_4_2)" stroke-width="50"/>
<mask id="path-5-inside-1_4_2" fill="white">
<path d="M134.787 109.465C191.266 74.7896 277.545 81.9891 327.497 125.545L349.641 144.854C386.821 177.274 382.882 224.477 340.844 250.285L256.405 302.126L76.4965 145.251L134.787 109.465Z"/>
</mask>
<path d="M134.787 109.465C191.266 74.7896 277.545 81.9891 327.497 125.545L349.641 144.854C386.821 177.274 382.882 224.477 340.844 250.285L256.405 302.126L76.4965 145.251L134.787 109.465Z" fill="white"/>
<path d="M109.643 80.1037C182.185 35.5673 293.001 44.8143 357.159 100.757L357.159 100.757C409.013 145.972 403.519 211.806 344.889 247.802L340.844 250.285C364.055 236.035 352.732 198.202 315.553 165.783L293.408 146.473C260.107 117.436 202.588 112.636 164.935 135.753L109.643 80.1037ZM256.405 302.126L76.4965 145.251L256.405 302.126ZM46.3481 118.963L109.643 80.1037C182.185 35.5673 293.001 44.8143 357.159 100.757L293.408 146.473C260.107 117.436 202.588 112.636 164.935 135.753L106.645 171.54L46.3481 118.963ZM416.96 203.554L256.405 302.126L416.96 203.554Z" fill="#FF7000" mask="url(#path-5-inside-1_4_2)"/>
<path d="M3.41902 146.717L33.2944 172.755L1.13968 192.075L3.41902 146.717Z" fill="#FF7000"/>
<path d="M0 234.538L24.5029 255.77L0 270.246V234.538Z" fill="#FF7000"/>
<path d="M1.13967 192.075L29.6314 216.684L0 234.538L1.13967 192.075Z" fill="#FFD5B3"/>
<line y1="-0.25" x2="45.4155" y2="-0.25" transform="matrix(-0.0501886 0.99874 -0.999351 -0.0360105 248.448 360.48)" stroke="#DC6100" stroke-width="0.5"/>
<line x1="245.279" y1="448.301" x2="245.279" y2="484.009" stroke="#DC6100" stroke-width="0.5"/>
<defs>
<linearGradient id="paint0_linear_4_2" x1="376.331" y1="199.465" x2="220.593" y2="411.996" gradientUnits="userSpaceOnUse">
<stop stop-color="#FFF1E6"/>
<stop offset="0.132427" stop-color="#FFF1E6"/>
<stop offset="0.455876" stop-color="#FFD7B7"/>
<stop offset="0.80055" stop-color="#FFD4B1"/>
<stop offset="1" stop-color="#FFD5B4"/>
</linearGradient>
<linearGradient id="paint1_linear_4_2" x1="374.291" y1="114.995" x2="221.536" y2="322.655" gradientUnits="userSpaceOnUse">
<stop stop-color="#FFF1E6"/>
<stop offset="0.350243" stop-color="#FFDFC5"/>
<stop offset="0.563205" stop-color="#FFD9BB"/>
<stop offset="1" stop-color="#FFD6B6"/>
</linearGradient>
</defs>
</svg>
